<svg xmlns="http://www.w3.org/2000/svg" preserveAspectRatio="xMidYMid" width="23" height="21" viewBox="0 0 23 21"><defs><style>.cls-2{fill:#ffbd00}</style></defs><path d="M12.88.26l9.694 8.962c.058.034.12.062.17.112a.894.894 0 0 1 .252.64l.002.008-.002.008a.89.89 0 0 1-.253.64c-.05.053-.114.083-.174.12l-9.69 8.956a.864.864 0 0 1-1.24 0 .898.898 0 0 1 0-1.254L20 10.968H1c-.494 0-1.002-.484-1.002-.986 0-.5.508-1.013 1.002-1.013h19l-8.354-7.46a.897.897 0 0 1 0-1.26.862.862 0 0 1 1.233 0z" id="path-1" class="cls-2" fill-rule="evenodd"/></svg>